HIERARCHY
ROOT Hips
{
    OFFSET 0.000000 0.000000 0.000000
    CHANNELS 6 Xposition Yposition Zposition Zrotation Xrotation Yrotation
    JOINT Spine
    {
        OFFSET 0.000001 7.292995 0.000000
        CHANNELS 3 Zrotation Xrotation Yrotation
        JOINT Spine1
        {
            OFFSET -0.000000 20.255388 0.000001
            CHANNELS 3 Zrotation Xrotation Yrotation
            JOINT Neck
            {
                OFFSET 0.000001 20.786594 0.000000
                CHANNELS 3 Zrotation Xrotation Yrotation
                JOINT Head
                {
                    OFFSET 0.000003 12.530788 1.776080
                    CHANNELS 3 Zrotation Xrotation Yrotation
                    End Site
                    {
                        OFFSET 0.000000 17.760757 0.000000
                    }
                }
            }
            JOINT LeftShoulder
            {
                OFFSET 3.550532 15.465697 -0.908801
                CHANNELS 3 Zrotation Xrotation Yrotation
                JOINT LeftArm
                {
                    OFFSET 12.513301 -0.000005 0.000001
                    CHANNELS 3 Zrotation Xrotation Yrotation
                    JOINT LeftForeArm
                    {
                        OFFSET 24.225992 0.000005 0.000000
                        CHANNELS 3 Zrotation Xrotation Yrotation
                        JOINT LeftHand
                        {
                            OFFSET 20.711395 -0.000004 0.000000
                            CHANNELS 3 Zrotation Xrotation Yrotation
                            JOINT LeftHandThumb1
                            {
                                OFFSET 2.121964 -2.411326 3.375861
                                CHANNELS 3 Zrotation Xrotation Yrotation
                                JOINT LeftHandThumb2
                                {
                                    OFFSET 2.803212 -0.000001 -0.000002
                                    CHANNELS 3 Zrotation Xrotation Yrotation
                                    JOINT LeftHandThumb3
                                    {
                                        OFFSET 2.395929 0.000000 0.000000
                                        CHANNELS 3 Zrotation Xrotation Yrotation
                                        End Site
                                        {
                                            OFFSET 2.127676 0.000000 0.000000
                                        }
                                    }
                                }
                            }
                            JOINT LeftHandIndex1
                            {
                                OFFSET 8.680776 0.000004 3.375861
                                CHANNELS 3 Zrotation Xrotation Yrotation
                                JOINT LeftHandIndex2
                                {
                                    OFFSET 4.218180 -0.000002 0.000001
                                    CHANNELS 3 Zrotation Xrotation Yrotation
                                    JOINT LeftHandIndex3
                                    {
                                        OFFSET 2.109090 0.000001 -0.000000
                                        CHANNELS 3 Zrotation Xrotation Yrotation
                                        End Site
                                        {
                                            OFFSET 1.872952 0.000000 0.000000
                                        }
                                    }
                                }
                            }
                            JOINT LeftHandMiddle1
                            {
                                OFFSET 8.680775 0.000001 1.118862
                                CHANNELS 3 Zrotation Xrotation Yrotation
                                JOINT LeftHandMiddle2
                                {
                                    OFFSET 4.640000 0.000002 -0.000000
                                    CHANNELS 3 Zrotation Xrotation Yrotation
                                    JOINT LeftHandMiddle3
                                    {
                                        OFFSET 2.530906 0.000005 0.000000
                                        CHANNELS 3 Zrotation Xrotation Yrotation
                                        End Site
                                        {
                                            OFFSET 2.247544 0.000000 0.000000
                                        }
                                    }
                                }
                            }
                            JOINT LeftHandRing1
                            {
                                OFFSET 8.198514 -0.000004 -1.118859
                                CHANNELS 3 Zrotation Xrotation Yrotation
                                JOINT LeftHandRing2
                                {
                                    OFFSET 4.218182 -0.000003 -0.000001
                                    CHANNELS 3 Zrotation Xrotation Yrotation
                                    JOINT LeftHandRing3
                                    {
                                        OFFSET 2.109086 0.000004 0.000001
                                        CHANNELS 3 Zrotation Xrotation Yrotation
                                        End Site
                                        {
                                            OFFSET 1.872952 0.000000 0.000000
                                        }
                                    }
                                }
                            }
                            JOINT LeftHandPinky1
                            {
                                OFFSET 7.716242 0.000005 -3.375859
                                CHANNELS 3 Zrotation Xrotation Yrotation
                                JOINT LeftHandPinky2
                                {
                                    OFFSET 3.374535 0.000004 0.000002
                                    CHANNELS 3 Zrotation Xrotation Yrotation
                                    JOINT LeftHandPinky3
                                    {
                                        OFFSET 1.687275 0.000002 -0.000001
                                        CHANNELS 3 Zrotation Xrotation Yrotation
                                        End Site
                                        {
                                            OFFSET 1.498360 0.000000 0.000000
                                        }
                                    }
                                }
                            }
                        }
                    }
                }
            }
            JOINT RightShoulder
            {
                OFFSET -3.550531 15.465694 -0.908802
                CHANNELS 3 Zrotation Xrotation Yrotation
                JOINT RightArm
                {
                    OFFSET -12.513298 -0.000004 0.000001
                    CHANNELS 3 Zrotation Xrotation Yrotation
                    JOINT RightForeArm
                    {
                        OFFSET -24.225996 -0.000002 -0.000000
                        CHANNELS 3 Zrotation Xrotation Yrotation
                        JOINT RightHand
                        {
                            OFFSET -20.711401 0.000005 0.000001
                            CHANNELS 3 Zrotation Xrotation Yrotation
                            JOINT RightHandThumb1
                            {
                                OFFSET -2.121970 -2.411334 3.375861
                                CHANNELS 3 Zrotation Xrotation Yrotation
                                JOINT RightHandThumb2
                                {
                                    OFFSET -2.803210 0.000003 -0.000004
                                    CHANNELS 3 Zrotation Xrotation Yrotation
                                    JOINT RightHandThumb3
                                    {
                                        OFFSET -2.395930 -0.000001 0.000002
                                        CHANNELS 3 Zrotation Xrotation Yrotation
                                        End Site
                                        {
                                            OFFSET -2.127676 0.000000 0.000000
                                        }
                                    }
                                }
                            }
                            JOINT RightHandIndex1
                            {
                                OFFSET -8.680779 0.000001 3.375860
                                CHANNELS 3 Zrotation Xrotation Yrotation
                                JOINT RightHandIndex2
                                {
                                    OFFSET -4.218180 0.000000 -0.000000
                                    CHANNELS 3 Zrotation Xrotation Yrotation
                                    JOINT RightHandIndex3
                                    {
                                        OFFSET -2.109090 0.000001 -0.000000
                                        CHANNELS 3 Zrotation Xrotation Yrotation
                                        End Site
                                        {
                                            OFFSET -1.872952 0.000000 0.000000
                                        }
                                    }
                                }
                            }
                            JOINT RightHandMiddle1
                            {
                                OFFSET -8.680780 0.000001 1.118860
                                CHANNELS 3 Zrotation Xrotation Yrotation
                                JOINT RightHandMiddle2
                                {
                                    OFFSET -4.640000 -0.000002 0.000001
                                    CHANNELS 3 Zrotation Xrotation Yrotation
                                    JOINT RightHandMiddle3
                                    {
                                        OFFSET -2.530910 0.000001 -0.000000
                                        CHANNELS 3 Zrotation Xrotation Yrotation
                                        End Site
                                        {
                                            OFFSET -2.247544 0.000000 0.000000
                                        }
                                    }
                                }
                            }
                            JOINT RightHandRing1
                            {
                                OFFSET -8.198519 0.000005 -1.118860
                                CHANNELS 3 Zrotation Xrotation Yrotation
                                JOINT RightHandRing2
                                {
                                    OFFSET -4.218180 -0.000006 0.000000
                                    CHANNELS 3 Zrotation Xrotation Yrotation
                                    JOINT RightHandRing3
                                    {
                                        OFFSET -2.109090 0.000001 -0.000000
                                        CHANNELS 3 Zrotation Xrotation Yrotation
                                        End Site
                                        {
                                            OFFSET -1.872952 0.000000 0.000000
                                        }
                                    }
                                }
                            }
                            JOINT RightHandPinky1
                            {
                                OFFSET -7.716248 -0.000002 -3.375859
                                CHANNELS 3 Zrotation Xrotation Yrotation
                                JOINT RightHandPinky2
                                {
                                    OFFSET -3.374540 0.000000 0.000000
                                    CHANNELS 3 Zrotation Xrotation Yrotation
                                    JOINT RightHandPinky3
                                    {
                                        OFFSET -1.687270 0.000004 0.000001
                                        CHANNELS 3 Zrotation Xrotation Yrotation
                                        End Site
                                        {
                                            OFFSET -1.498360 0.000000 0.000000
                                        }
                                    }
                                }
                            }
                        }
                    }
                }
            }
        }
    }
    JOINT LeftUpLeg
    {
        OFFSET 8.880376 -0.000000 -0.000000
        CHANNELS 3 Zrotation Xrotation Yrotation
        JOINT LeftLeg
        {
            OFFSET -0.000001 -40.387405 -0.000001
            CHANNELS 3 Zrotation Xrotation Yrotation
            JOINT LeftFoot
            {
                OFFSET -0.000001 -36.911297 -0.000001
                CHANNELS 3 Zrotation Xrotation Yrotation
                JOINT LeftToeBase
                {
                    OFFSET -0.000002 -5.772240 13.320604
                    CHANNELS 3 Zrotation Xrotation Yrotation
                    End Site
                    {
                        OFFSET 0.000000 0.000000 3.552151
                    }
                }
            }
        }
    }
    JOINT RightUpLeg
    {
        OFFSET -8.880376 0.000000 0.000000
        CHANNELS 3 Zrotation Xrotation Yrotation
        JOINT RightLeg
        {
            OFFSET -0.000001 -40.387390 0.000000
            CHANNELS 3 Zrotation Xrotation Yrotation
            JOINT RightFoot
            {
                OFFSET 0.000002 -36.911297 -0.000001
                CHANNELS 3 Zrotation Xrotation Yrotation
                JOINT RightToeBase
                {
                    OFFSET 0.000001 -5.772238 13.320600
                    CHANNELS 3 Zrotation Xrotation Yrotation
                    End Site
                    {
                        OFFSET 0.000000 0.000000 3.552151
                    }
                }
            }
        }
    }
}
MOTION
Frames: 5
Frame Time: 0.013889
20.875475    83.717789    26.225266    1.473956    9.048542    0.046173    0.340577    -24.078299    0.834730    0.932581    15.321407    0.488697    -4.421017    -4.721585    -2.509874    0.188806    4.414880    -2.154903    -2.659565    6.153564    -0.905533    -64.491020    42.553829    -11.379711    -6.499341    -20.396782    -18.101511    -9.690535    3.991730    8.585527    29.278269    35.876434    -40.870728    -12.412985    -0.217698    23.316511    -0.000000    0.000000    -0.000000    -7.071055    17.871792    -1.984861    -6.728231    -0.000001    -0.000005    -6.728232    0.000002    0.000000    -7.165370    8.930855    -0.964396    -7.078055    -0.000003    -0.000002    -7.078042    -0.000000    0.000005    -7.342391    -8.927397    -1.313682    -7.252975    0.000000    -0.000001    -7.252958    0.000000    -0.000002    -7.805536    -17.843800    -2.741571    -7.427881    -0.000000    -0.000002    -7.427872    -0.000001    -0.000001    6.907835    6.125923    2.286820    62.566486    36.595428    8.140461    7.117425    -18.122183    21.872450    10.649030    4.243246    -5.974478    -38.632584    28.727530    44.617577    14.445888    -1.093454    -23.293257    -0.000000    0.000000    -0.000000    13.729639    17.517502    9.480143    13.081348    0.000000    0.000003    13.081342    0.000003    -0.000004    8.476387    8.903280    5.521787    8.373492    -0.000003    -0.000022    8.373518    0.000000    0.000007    6.094070    -8.949971    2.052289    6.019602    0.000000    0.000001    6.019612    -0.000002    0.000003    3.853775    -17.961870    3.391505    3.665684    -0.000002    -0.000002    3.665674    0.000001    -0.000000    -1.600418    -5.570101    6.657629    -0.000000    7.662997    0.000000    -1.334308    -5.489723    -12.960940    0.000000    1.588328    -0.000000    1.205568    -3.698589    -13.425700    0.000000    3.813356    -0.000001    8.052125    -7.842887    3.806436    -0.000002    5.067680    0.000001    
20.861296    83.717316    26.226688    1.480268    9.039710    0.048869    0.338663    -24.094347    0.829521    0.932848    15.320560    0.483963    -4.381351    -4.738335    -2.507726    0.226287    4.375057    -2.157767    -2.651109    6.155546    -0.901264    -64.492889    42.571114    -11.398437    -6.493042    -20.354538    -18.118567    -9.705778    4.031782    8.540940    29.304583    35.858311    -40.863979    -12.408057    -0.215575    23.316536    -0.000000    0.000000    -0.000000    -7.073977    17.871685    -2.059820    -6.731019    0.000005    -0.000003    -6.731016    -0.000004    0.000005    -7.148699    8.931176    -1.004910    -7.061579    0.000000    -0.000002    -7.061585    0.000000    -0.000005    -7.315982    -8.927922    -1.345144    -7.226856    -0.000002    -0.000001    -7.226876    0.000003    -0.000003    -7.768033    -17.845297    -2.801202    -7.392126    -0.000001    0.000002    -7.392158    0.000001    -0.000003    6.919038    6.129613    2.299920    62.553429    36.553673    8.131062    7.097190    -18.085207    21.854607    10.630791    4.254308    -5.958309    -38.623177    28.729532    44.634998    14.454350    -1.097091    -23.293089    -0.000000    0.000000    -0.000000    13.724095    17.517893    9.490805    13.076014    -0.000000    -0.000003    13.076015    0.000000    0.000002    8.471254    8.903394    5.527065    8.368450    0.000005    0.000005    8.368452    -0.000013    -0.000008    6.089078    -8.950055    2.033565    6.014647    -0.000000    -0.000002    6.014664    0.000000    0.000003    3.848718    -17.961973    3.354045    3.660878    0.000002    0.000002    3.660878    -0.000001    0.000001    -1.601424    -5.555839    6.640309    0.000000    7.655594    -0.000001    -1.311112    -5.491689    -12.915570    -0.000000    1.589995    -0.000000    1.207125    -3.679079    -13.464080    -0.000001    3.798788    0.000003    8.073317    -7.835058    3.851976    0.000001    5.065732    -0.000000    
20.847591    83.717163    26.230108    1.489668    9.025226    0.048605    0.337602    -24.110041    0.826416    0.938083    15.321865    0.479732    -4.374727    -4.738787    -2.558760    0.245705    4.363870    -2.210704    -2.637636    6.161705    -0.894849    -64.498444    42.579166    -11.406435    -6.497628    -20.303909    -18.171106    -9.727014    4.116538    8.448315    29.305965    35.857693    -40.839478    -12.415211    -0.218657    23.316504    -0.000000    0.000000    -0.000000    -7.176806    17.867920    -2.045597    -6.828962    0.000005    -0.000003    -6.828961    0.000003    0.000005    -7.176019    8.930655    -1.009338    -7.088584    0.000000    -0.000005    -7.088568    -0.000004    0.000005    -7.307404    -8.928087    -1.378187    -7.218382    -0.000000    0.000001    -7.218397    0.000003    -0.000001    -7.721895    -17.847126    -2.855812    -7.348195    0.000000    -0.000001    -7.348195    0.000000    0.000000    6.923771    6.136369    2.304922    62.542709    36.529274    8.122943    7.079470    -18.056725    21.834742    10.651009    4.257695    -5.976402    -38.622829    28.726540    44.646667    14.459701    -1.099400    -23.292984    -0.000000    0.000000    -0.000000    13.739421    17.516815    9.499047    13.090710    0.000004    0.000003    13.090712    -0.000003    0.000004    8.479112    8.903219    5.532288    8.376193    0.000000    -0.000017    8.376205    -0.000004    -0.000001    6.093423    -8.949982    2.016429    6.018966    0.000000    0.000002    6.018952    0.000002    -0.000003    3.849596    -17.961956    3.318698    3.661705    0.000001    0.000000    3.661709    -0.000000    -0.000000    -1.602282    -5.538995    6.606115    -0.000000    7.651243    -0.000000    -1.304463    -5.485980    -12.902575    0.000000    1.591238    -0.000000    1.205783    -3.663439    -13.477704    0.000000    3.802823    -0.000000    8.072999    -7.843657    3.871436    0.000001    5.064552    -0.000001    
20.829268    83.715698    26.233158    1.500603    9.006257    0.051352    0.333842    -24.124628    0.816747    0.942402    15.317027    0.470089    -4.343655    -4.753082    -2.551758    0.277548    4.341953    -2.207728    -2.638659    6.165824    -0.909742    -64.509506    42.574108    -11.408872    -6.508364    -20.280834    -18.217922    -9.704618    4.166942    8.415838    29.242022    35.903137    -40.750305    -12.456263    -0.236353    23.316345    -0.000000    0.000000    -0.000000    -7.364250    17.860954    -1.914926    -7.007495    0.000003    0.000000    -7.007500    -0.000002    -0.000000    -7.238750    8.929434    -0.963014    -7.150562    0.000002    0.000000    -7.150562    -0.000002    0.000002    -7.311157    -8.928015    -1.423285    -7.222101    0.000001    0.000002    -7.222097    -0.000003    0.000001    -7.664619    -17.849382    -2.927291    -7.293621    -0.000001    0.000000    -7.293636    0.000001    -0.000001    6.926886    6.139711    2.296715    62.528408    36.518620    8.126568    7.063771    -18.029514    21.819252    10.673973    4.286911    -5.973035    -38.624760    28.727417    44.638409    14.467687    -1.102835    -23.292837    -0.000000    0.000000    -0.000000    13.772475    17.514498    9.522106    13.122304    -0.000000    -0.000002    13.122301    -0.000000    -0.000002    8.497611    8.902795    5.545914    8.394488    0.000002    0.000002    8.394487    -0.000002    0.000002    6.105186    -8.949786    1.998894    6.030584    -0.000002    -0.000002    6.030590    0.000002    0.000001    3.854809    -17.961853    3.281575    3.666690    0.000000    0.000003    3.666680    -0.000001    -0.000002    -1.599785    -5.512081    6.613647    -0.000000    7.643172    -0.000000    -1.317433    -5.486200    -12.902135    0.000000    1.589225    -0.000000    1.207062    -3.646304    -13.471671    -0.000000    3.813345    0.000001    8.065784    -7.873689    3.862322    -0.000000    5.059079    -0.000001    
20.815866    83.714157    26.234379    1.509543    8.989594    0.054170    0.330357    -24.134068    0.807924    0.951358    15.317666    0.459891    -4.336308    -4.785995    -2.556172    0.288789    4.320426    -2.211198    -2.637831    6.168015    -0.932016    -64.510849    42.585548    -11.413589    -6.524862    -20.279366    -18.262554    -9.657634    4.169713    8.399753    29.184080    35.943581    -40.712643    -12.491554    -0.251567    23.316196    -0.000000    0.000000    -0.000000    -7.454917    17.857504    -1.829730    -7.093852    0.000000    -0.000002    -7.093865    0.000002    -0.000002    -7.243014    8.929350    -0.933659    -7.154768    -0.000003    -0.000000    -7.154771    -0.000001    -0.000004    -7.273841    -8.928743    -1.449696    -7.185230    -0.000001    -0.000003    -7.185234    0.000002    -0.000002    -7.582801    -17.852579    -2.966608    -7.215683    0.000001    -0.000001    -7.215696    0.000001    -0.000002    6.927769    6.139648    2.302749    62.516785    36.519798    8.128618    7.058656    -18.033478    21.800583    10.711691    4.312666    -5.957330    -38.626244    28.729321    44.627762    14.473837    -1.105484    -23.292715    -0.000000    0.000000    -0.000000    13.802956    17.512354    9.545613    13.151436    0.000000    -0.000000    13.151433    0.000010    0.000001    8.510307    8.902508    5.560290    8.407037    -0.000005    0.000005    8.407026    0.000000    0.000002    6.109491    -8.949712    1.981785    6.034836    0.000000    -0.000000    6.034822    -0.000005    -0.000002    3.850574    -17.961933    3.244709    3.662629    -0.000002    -0.000001    3.662639    0.000000    0.000000    -1.599562    -5.498629    6.613842    0.000000    7.649549    -0.000000    -1.331113    -5.483791    -12.904597    -0.000000    1.581864    -0.000000    1.207966    -3.631265    -13.457006    0.000000    3.819216    0.000000    8.052646    -7.884789    3.847627    0.000001    5.066848    -0.000002    
